<svg xmlns="http://www.w3.org/2000/svg" xml:space="preserve" width="149.028" height="166.32"><g transform="translate(-420.006 -610.89) scale(1.29454)"><path d="m288.79 571.907-21.483-12.403a11.505 11.505 0 0 1 4.214-4.213l17.268-9.97z" style="fill:#4c9edc;fill-opacity:1;fill-rule:nonzero;stroke:none" transform="matrix(1.25 0 0 -1.25 -7.762 1267.635)"/><path d="M265.765 585.2v-19.94c0-2.056.549-4.034 1.542-5.755l21.482 12.402z" style="fill:#498cd2;fill-opacity:1;fill-rule:nonzero;stroke:none" transform="matrix(1.25 0 0 -1.25 -7.762 1267.635)"/><path d="M288.79 571.907v26.586L265.764 585.2z" style="fill:#487dc8;fill-opacity:1;fill-rule:nonzero;stroke:none" transform="matrix(1.25 0 0 -1.25 -7.762 1267.635)"/><path d="m288.79 545.32 17.267-9.97a11.508 11.508 0 0 1 5.756-1.541v24.805z" style="fill:#5295d6;fill-opacity:1;fill-rule:nonzero;stroke:none" transform="matrix(1.25 0 0 -1.25 -7.762 1267.635)"/><path d="M267.307 610.895a11.502 11.502 0 0 1-1.542-5.756V585.2l23.024 13.293z" style="fill:#476bbc;fill-opacity:1;fill-rule:nonzero;stroke:none" transform="matrix(1.25 0 0 -1.25 -7.762 1267.635)"/><path d="M334.837 545.32v26.587l-23.024-13.293z" style="fill:#7f9ad6;fill-opacity:1;fill-rule:nonzero;stroke:none" transform="matrix(1.25 0 0 -1.25 -7.762 1267.635)"/><path d="M356.32 559.504a11.502 11.502 0 0 1 1.541 5.756v19.94l-23.024-13.294z" style="fill:#727ebd;fill-opacity:1;fill-rule:nonzero;stroke:none" transform="matrix(1.25 0 0 -1.25 -7.762 1267.635)"/><path d="M334.837 571.907V545.32l17.268 9.97a11.5 11.5 0 0 1 4.214 4.214z" style="fill:#8f9fd8;fill-opacity:1;fill-rule:nonzero;stroke:none" transform="matrix(1.25 0 0 -1.25 -7.762 1267.635)"/><path d="M334.837 598.493v-26.586l23.024 13.293z" style="fill:#425da2;fill-opacity:1;fill-rule:nonzero;stroke:none" transform="matrix(1.25 0 0 -1.25 -7.762 1267.635)"/><path d="M311.813 558.614v-24.805c1.987 0 3.975.514 5.756 1.542l17.268 9.97z" style="fill:#6495d5;fill-opacity:1;fill-rule:nonzero;stroke:none" transform="matrix(1.25 0 0 -1.25 -7.762 1267.635)"/><path d="m311.813 611.786-23.024 13.293v-26.586z" style="fill:#3a64ad;fill-opacity:1;fill-rule:nonzero;stroke:none" transform="matrix(1.25 0 0 -1.25 -7.762 1267.635)"/><path d="m311.813 611.786 23.024-13.293v26.586z" style="fill:#3a61a3;fill-opacity:1;fill-rule:nonzero;stroke:none" transform="matrix(1.25 0 0 -1.25 -7.762 1267.635)"/><path d="m267.307 610.895 21.482-12.403v26.586l-17.268-9.969a11.515 11.515 0 0 1-4.214-4.214" style="fill:#32549d;fill-opacity:1;fill-rule:nonzero;stroke:none" transform="matrix(1.25 0 0 -1.25 -7.762 1267.635)"/><path d="m334.837 598.493 23.024-13.293v19.939c0 2.057-.548 4.035-1.542 5.757z" style="fill:#2f5296;fill-opacity:1;fill-rule:nonzero;stroke:none" transform="matrix(1.25 0 0 -1.25 -7.762 1267.635)"/><path d="m334.837 598.493 21.482 12.403a11.505 11.505 0 0 1-4.214 4.213l-17.268 9.97z" style="fill:#325295;fill-opacity:1;fill-rule:nonzero;stroke:none" transform="matrix(1.25 0 0 -1.25 -7.762 1267.635)"/><path d="m334.837 625.079-17.269 9.97a11.505 11.505 0 0 1-5.755 1.542v-24.805z" style="fill:#4379c6;fill-opacity:1;fill-rule:nonzero;stroke:none" transform="matrix(1.25 0 0 -1.25 -7.762 1267.635)"/><path d="M311.813 611.786v24.805c-1.987 0-3.975-.514-5.755-1.542l-17.269-9.97z" style="fill:#3f73bd;fill-opacity:1;fill-rule:nonzero;stroke:none" transform="matrix(1.25 0 0 -1.25 -7.762 1267.635)"/><path d="m288.79 545.32 23.023 13.294-23.024 13.293z" style="fill:#50a0dd;fill-opacity:1;fill-rule:nonzero;stroke:none" transform="matrix(1.25 0 0 -1.25 -7.762 1267.635)"/><path style="fill:#425da2;fill-opacity:1;fill-rule:nonzero;stroke:none" d="M288.79 598.493v-26.586l23.023 13.293z" transform="matrix(1.25 0 0 -1.25 -7.762 1267.635)"/><path style="fill:#487dc8;fill-opacity:1;fill-rule:nonzero;stroke:none" d="M334.837 571.907v26.586L311.813 585.2z" transform="matrix(1.25 0 0 -1.25 -7.762 1267.635)"/><path transform="translate(-7.762 -7.762)" d="M389.766 543.896v.002l-28.78 16.616 28.78 16.617 28.78-16.617-28.78-16.617z" style="fill:#3f73bd;fill-opacity:1;fill-rule:nonzero;stroke:none"/><path style="fill:#2f5296;fill-opacity:1;fill-rule:nonzero;stroke:none" d="M311.813 585.2v26.586l-23.024-13.293z" transform="matrix(1.25 0 0 -1.25 -7.762 1267.635)"/><path style="fill:#498cd2;fill-opacity:1;fill-rule:nonzero;stroke:none" d="m311.813 585.2 23.024 13.293-23.024 13.293z" transform="matrix(1.25 0 0 -1.25 -7.762 1267.635)"/></g></svg>

